<?xml version="1.0" standalone="no"?><!DOCTYPE svg PUBLIC "-//W3C//DTD SVG 1.1//EN" "http://www.w3.org/Graphics/SVG/1.1/DTD/svg11.dtd"><svg t="1583400477877" class="icon" viewBox="0 0 1024 1024" version="1.1" xmlns="http://www.w3.org/2000/svg" p-id="2869" xmlns:xlink="http://www.w3.org/1999/xlink" width="200" height="200"><defs><style type="text/css"></style></defs><path d="M395.06 481.7l-180 0c-49.62 0-90-40.38-90-90l0-180c0-49.62 40.38-90 90-90l180 0c49.62 0 90 40.38 90 90l0 180C485.06 441.35 444.68 481.7 395.06 481.7zM215.06 181.7c-16.53 0-30 13.47-30 30l0 180c0 16.53 13.47 30 30 30l180 0c16.53 0 30-13.47 30-30l0-180c0-16.53-13.47-30-30-30L215.06 181.7zM395.06 901.7l-180 0c-49.62 0-90-40.38-90-90l0-180c0-49.62 40.38-90 90-90l180 0c49.62 0 90 40.38 90 90l0 180C485.06 861.35 444.68 901.7 395.06 901.7zM215.06 601.7c-16.53 0-30 13.44-30 30l0 180c0 16.56 13.47 30 30 30l180 0c16.53 0 30-13.44 30-30l0-180c0-16.56-13.47-30-30-30L215.06 601.7zM812.12 481.7l-180 0c-49.62 0-90-40.38-90-90l0-180c0-49.62 40.38-90 90-90l180 0c49.62 0 90 40.38 90 90l0 180C902.12 441.35 861.74 481.7 812.12 481.7zM632.12 181.7c-16.56 0-30 13.47-30 30l0 180c0 16.53 13.44 30 30 30l180 0c16.56 0 30-13.47 30-30l0-180c0-16.53-13.44-30-30-30L632.12 181.7zM812.12 901.7l-180 0c-49.62 0-90-40.38-90-90l0-180c0-49.62 40.38-90 90-90l180 0c49.62 0 90 40.38 90 90l0 180C902.12 861.35 861.74 901.7 812.12 901.7zM632.12 601.7c-16.56 0-30 13.44-30 30l0 180c0 16.56 13.44 30 30 30l180 0c16.56 0 30-13.44 30-30l0-180c0-16.56-13.44-30-30-30L632.12 601.7z" fill="#1296db" p-id="2870"></path></svg>