<?xml version="1.0" standalone="no"?><!DOCTYPE svg PUBLIC "-//W3C//DTD SVG 1.1//EN" "http://www.w3.org/Graphics/SVG/1.1/DTD/svg11.dtd"><svg t="1590383860280" class="icon" viewBox="0 0 1024 1024" version="1.1" xmlns="http://www.w3.org/2000/svg" p-id="3297" xmlns:xlink="http://www.w3.org/1999/xlink" width="200" height="200"><defs><style type="text/css"></style></defs><path d="M296.277333 131.072h681.301334v102.058667H296.277333zM296.277333 450.218667h681.301334v102.058666H296.277333zM296.277333 790.869333h681.301334v102.058667H296.277333z" fill="#1296db" p-id="3298"></path><path d="M125.952 181.930667m-79.530667 0a79.530667 79.530667 0 1 0 159.061334 0 79.530667 79.530667 0 1 0-159.061334 0Z" fill="#1296db" p-id="3299"></path><path d="M125.952 522.581333m-79.530667 0a79.530667 79.530667 0 1 0 159.061334 0 79.530667 79.530667 0 1 0-159.061334 0Z" fill="#1296db" p-id="3300"></path><path d="M125.952 842.069333m-79.530667 0a79.530667 79.530667 0 1 0 159.061334 0 79.530667 79.530667 0 1 0-159.061334 0Z" fill="#1296db" p-id="3301"></path></svg>